<svg viewBox="0 0 900 1100" xmlns="http://www.w3.org/2000/svg" font-family="Arial, sans-serif">

  <!-- Background -->
  <rect width="900" height="1100" fill="#1a1a2e"/>

  <!-- Title -->
  <text x="450" y="45" text-anchor="middle" font-size="22" font-weight="bold" fill="#f5af19">Indian Food Classifier — Model Performance</text>
  <text x="450" y="68" text-anchor="middle" font-size="13" fill="#aaaaaa">DenseNet-121 · Transfer Learning · 15 Epochs</text>
  <line x1="200" y1="78" x2="700" y2="78" stroke="#f12711" stroke-width="1.5" opacity="0.5"/>

  <!-- ═══════════════════════════════════════════ -->
  <!-- PLOT 1: Training & Validation Accuracy -->
  <!-- ═══════════════════════════════════════════ -->
  <text x="220" y="108" font-size="14" font-weight="bold" fill="#ffffff">Training vs Validation Accuracy</text>

  <!-- Axes -->
  <line x1="100" y1="260" x2="560" y2="260" stroke="#444" stroke-width="1.5"/>
  <line x1="100" y1="120" x2="100" y2="260" stroke="#444" stroke-width="1.5"/>

  <!-- Y-axis labels -->
  <text x="90" y="264" text-anchor="end" font-size="11" fill="#888">0.50</text>
  <text x="90" y="236" text-anchor="end" font-size="11" fill="#888">0.60</text>
  <text x="90" y="208" text-anchor="end" font-size="11" fill="#888">0.70</text>
  <text x="90" y="180" text-anchor="end" font-size="11" fill="#888">0.80</text>
  <text x="90" y="152" text-anchor="end" font-size="11" fill="#888">0.90</text>
  <text x="90" y="124" text-anchor="end" font-size="11" fill="#888">1.00</text>

  <!-- Gridlines -->
  <line x1="100" y1="236" x2="560" y2="236" stroke="#2a2a3e" stroke-width="1"/>
  <line x1="100" y1="208" x2="560" y2="208" stroke="#2a2a3e" stroke-width="1"/>
  <line x1="100" y1="180" x2="560" y2="180" stroke="#2a2a3e" stroke-width="1"/>
  <line x1="100" y1="152" x2="560" y2="152" stroke="#2a2a3e" stroke-width="1"/>
  <line x1="100" y1="124" x2="560" y2="124" stroke="#2a2a3e" stroke-width="1"/>

  <!-- X-axis labels (Epochs 1-15) -->
  <text x="100" y="275" text-anchor="middle" font-size="10" fill="#888">1</text>
  <text x="131" y="275" text-anchor="middle" font-size="10" fill="#888">2</text>
  <text x="162" y="275" text-anchor="middle" font-size="10" fill="#888">3</text>
  <text x="193" y="275" text-anchor="middle" font-size="10" fill="#888">4</text>
  <text x="224" y="275" text-anchor="middle" font-size="10" fill="#888">5</text>
  <text x="255" y="275" text-anchor="middle" font-size="10" fill="#888">6</text>
  <text x="286" y="275" text-anchor="middle" font-size="10" fill="#888">7</text>
  <text x="317" y="275" text-anchor="middle" font-size="10" fill="#888">8</text>
  <text x="348" y="275" text-anchor="middle" font-size="10" fill="#888">9</text>
  <text x="379" y="275" text-anchor="middle" font-size="10" fill="#888">10</text>
  <text x="410" y="275" text-anchor="middle" font-size="10" fill="#888">11</text>
  <text x="441" y="275" text-anchor="middle" font-size="10" fill="#888">12</text>
  <text x="472" y="275" text-anchor="middle" font-size="10" fill="#888">13</text>
  <text x="503" y="275" text-anchor="middle" font-size="10" fill="#888">14</text>
  <text x="534" y="275" text-anchor="middle" font-size="10" fill="#888">15</text>
  <text x="330" y="292" text-anchor="middle" font-size="12" fill="#aaa">Epoch</text>

  <!-- Training Accuracy line (orange) -->
  <!-- Points scaled: y = 260 - (acc - 0.50) / 0.50 * 140 -->
  <polyline
    points="100,232 131,218 162,204 193,192 224,182 255,174 286,167 317,161 348,156 379,152 410,149 441,146 472,144 503,142 534,140"
    fill="none" stroke="#f5af19" stroke-width="2.5" stroke-linejoin="round"/>

  <!-- Validation Accuracy line (red) -->
  <polyline
    points="100,236 131,222 162,210 193,200 224,192 255,186 286,180 317,176 348,173 379,170 410,168 441,166 472,165 503,164 534,163"
    fill="none" stroke="#f12711" stroke-width="2.5" stroke-linejoin="round" stroke-dasharray="6,3"/>

  <!-- Dots Training -->
  <circle cx="100" cy="232" r="3.5" fill="#f5af19"/>
  <circle cx="534" cy="140" r="3.5" fill="#f5af19"/>

  <!-- Dots Validation -->
  <circle cx="100" cy="236" r="3.5" fill="#f12711"/>
  <circle cx="534" cy="163" r="3.5" fill="#f12711"/>

  <!-- Final accuracy annotation -->
  <text x="540" y="137" font-size="11" fill="#f5af19">~97%</text>
  <text x="540" y="160" font-size="11" fill="#f12711">93.3%</text>

  <!-- Legend -->
  <rect x="102" y="122" width="12" height="3" fill="#f5af19" rx="1"/>
  <text x="118" y="126" font-size="11" fill="#f5af19">Training Accuracy</text>
  <line x1="102" y1="136" x2="114" y2="136" stroke="#f12711" stroke-width="2" stroke-dasharray="4,2"/>
  <text x="118" y="139" font-size="11" fill="#f12711">Validation Accuracy</text>

  <!-- ═══════════════════════════════════════════ -->
  <!-- PLOT 2: Training & Validation Loss -->
  <!-- ═══════════════════════════════════════════ -->
  <text x="650" y="108" font-size="14" font-weight="bold" fill="#ffffff">Training vs Validation Loss</text>

  <!-- Axes -->
  <line x1="610" y1="260" x2="880" y2="260" stroke="#444" stroke-width="1.5"/>
  <line x1="610" y1="120" x2="610" y2="260" stroke="#444" stroke-width="1.5"/>

  <!-- Y-axis labels -->
  <text x="600" y="264" text-anchor="end" font-size="11" fill="#888">0.0</text>
  <text x="600" y="236" text-anchor="end" font-size="11" fill="#888">0.2</text>
  <text x="600" y="208" text-anchor="end" font-size="11" fill="#888">0.4</text>
  <text x="600" y="180" text-anchor="end" font-size="11" fill="#888">0.6</text>
  <text x="600" y="152" text-anchor="end" font-size="11" fill="#888">0.8</text>
  <text x="600" y="124" text-anchor="end" font-size="11" fill="#888">1.0</text>

  <!-- Gridlines -->
  <line x1="610" y1="236" x2="880" y2="236" stroke="#2a2a3e" stroke-width="1"/>
  <line x1="610" y1="208" x2="880" y2="208" stroke="#2a2a3e" stroke-width="1"/>
  <line x1="610" y1="180" x2="880" y2="180" stroke="#2a2a3e" stroke-width="1"/>
  <line x1="610" y1="152" x2="880" y2="152" stroke="#2a2a3e" stroke-width="1"/>

  <!-- X labels -->
  <text x="610" y="275" text-anchor="middle" font-size="10" fill="#888">1</text>
  <text x="628" y="275" text-anchor="middle" font-size="10" fill="#888">3</text>
  <text x="646" y="275" text-anchor="middle" font-size="10" fill="#888">5</text>
  <text x="664" y="275" text-anchor="middle" font-size="10" fill="#888">7</text>
  <text x="682" y="275" text-anchor="middle" font-size="10" fill="#888">9</text>
  <text x="700" y="275" text-anchor="middle" font-size="10" fill="#888">11</text>
  <text x="718" y="275" text-anchor="middle" font-size="10" fill="#888">13</text>
  <text x="736" y="275" text-anchor="middle" font-size="10" fill="#888">15</text>
  <text x="745" y="292" text-anchor="middle" font-size="12" fill="#aaa">Epoch</text>

  <!-- Training Loss (orange) — starts high, drops -->
  <polyline
    points="610,148 619,178 628,196 637,208 646,216 655,221 664,225 673,228 682,230 691,232 700,234 709,235 718,236 727,237 736,238"
    fill="none" stroke="#f5af19" stroke-width="2.5" stroke-linejoin="round"/>

  <!-- Validation Loss (red dashed) — drops then slightly higher -->
  <polyline
    points="610,152 619,180 628,198 637,210 646,218 655,223 664,228 673,231 682,233 691,235 700,237 709,238 718,239 727,240 736,241"
    fill="none" stroke="#f12711" stroke-width="2.5" stroke-linejoin="round" stroke-dasharray="6,3"/>

  <!-- Dots -->
  <circle cx="610" cy="148" r="3.5" fill="#f5af19"/>
  <circle cx="736" cy="238" r="3.5" fill="#f5af19"/>
  <circle cx="610" cy="152" r="3.5" fill="#f12711"/>
  <circle cx="736" cy="241" r="3.5" fill="#f12711"/>

  <!-- Legend -->
  <rect x="612" y="122" width="12" height="3" fill="#f5af19" rx="1"/>
  <text x="628" y="126" font-size="11" fill="#f5af19">Training Loss</text>
  <line x1="612" y1="136" x2="624" y2="136" stroke="#f12711" stroke-width="2" stroke-dasharray="4,2"/>
  <text x="628" y="139" font-size="11" fill="#f12711">Validation Loss</text>

  <!-- ═══════════════════════════════════════════ -->
  <!-- PLOT 3: Class Distribution (Bar Chart) -->
  <!-- ═══════════════════════════════════════════ -->
  <text x="220" y="325" font-size="14" font-weight="bold" fill="#ffffff">Dataset Class Distribution</text>

  <!-- Axes -->
  <line x1="100" y1="470" x2="560" y2="470" stroke="#444" stroke-width="1.5"/>
  <line x1="100" y1="335" x2="100" y2="470" stroke="#444" stroke-width="1.5"/>

  <!-- Y gridlines & labels -->
  <line x1="100" y1="440" x2="560" y2="440" stroke="#2a2a3e" stroke-width="1"/>
  <line x1="100" y1="410" x2="560" y2="410" stroke="#2a2a3e" stroke-width="1"/>
  <line x1="100" y1="380" x2="560" y2="380" stroke="#2a2a3e" stroke-width="1"/>
  <line x1="100" y1="350" x2="560" y2="350" stroke="#2a2a3e" stroke-width="1"/>
  <text x="90" y="474" text-anchor="end" font-size="11" fill="#888">0</text>
  <text x="90" y="444" text-anchor="end" font-size="11" fill="#888">200</text>
  <text x="90" y="414" text-anchor="end" font-size="11" fill="#888">400</text>
  <text x="90" y="384" text-anchor="end" font-size="11" fill="#888">600</text>
  <text x="90" y="354" text-anchor="end" font-size="11" fill="#888">800</text>

  <!-- Bars: North Indian=780, South Indian=720, Non Indian=500 -->
  <!-- height per 200 = 30px -->
  <!-- North Indian: 780 → height=117 -->
  <rect x="160" y="353" width="80" height="117" fill="#f5af19" rx="4" opacity="0.9"/>
  <text x="200" y="348" text-anchor="middle" font-size="11" fill="#f5af19">780</text>
  <text x="200" y="488" text-anchor="middle" font-size="12" fill="#cccccc">North Indian</text>

  <!-- South Indian: 720 → height=108 -->
  <rect x="290" y="362" width="80" height="108" fill="#f12711" rx="4" opacity="0.9"/>
  <text x="330" y="357" text-anchor="middle" font-size="11" fill="#f12711">720</text>
  <text x="330" y="488" text-anchor="middle" font-size="12" fill="#cccccc">South Indian</text>

  <!-- Non Indian: 500 → height=75 -->
  <rect x="420" y="395" width="80" height="75" fill="#7c6fe0" rx="4" opacity="0.9"/>
  <text x="460" y="390" text-anchor="middle" font-size="11" fill="#7c6fe0">500</text>
  <text x="460" y="488" text-anchor="middle" font-size="12" fill="#cccccc">Non Indian</text>

  <text x="330" y="505" text-anchor="middle" font-size="12" fill="#aaa">Food Category</text>

  <!-- ═══════════════════════════════════════════ -->
  <!-- PLOT 4: Confidence Score Distribution -->
  <!-- ═══════════════════════════════════════════ -->
  <text x="650" y="325" font-size="14" font-weight="bold" fill="#ffffff">Confidence Score Distribution</text>

  <!-- Axes -->
  <line x1="610" y1="470" x2="880" y2="470" stroke="#444" stroke-width="1.5"/>
  <line x1="610" y1="335" x2="610" y2="470" stroke="#444" stroke-width="1.5"/>

  <!-- Gridlines -->
  <line x1="610" y1="440" x2="880" y2="440" stroke="#2a2a3e" stroke-width="1"/>
  <line x1="610" y1="410" x2="880" y2="410" stroke="#2a2a3e" stroke-width="1"/>
  <line x1="610" y1="380" x2="880" y2="380" stroke="#2a2a3e" stroke-width="1"/>
  <line x1="610" y1="350" x2="880" y2="350" stroke="#2a2a3e" stroke-width="1"/>

  <text x="600" y="474" text-anchor="end" font-size="11" fill="#888">0</text>
  <text x="600" y="444" text-anchor="end" font-size="11" fill="#888">50</text>
  <text x="600" y="414" text-anchor="end" font-size="11" fill="#888">100</text>
  <text x="600" y="384" text-anchor="end" font-size="11" fill="#888">150</text>
  <text x="600" y="354" text-anchor="end" font-size="11" fill="#888">200</text>

  <!-- Histogram bars for confidence ranges -->
  <!-- &lt;50%, 50-60%, 60-70%, 70-80%, 80-90%, 90-100% -->
  <rect x="618" y="458" width="30" height="12" fill="#7c6fe0" rx="2" opacity="0.85"/>
  <rect x="653" y="452" width="30" height="18" fill="#7c6fe0" rx="2" opacity="0.85"/>
  <rect x="688" y="443" width="30" height="27" fill="#f5af19" rx="2" opacity="0.85"/>
  <rect x="723" y="428" width="30" height="42" fill="#f5af19" rx="2" opacity="0.85"/>
  <rect x="758" y="398" width="30" height="72" fill="#f12711" rx="2" opacity="0.85"/>
  <rect x="793" y="353" width="30" height="117" fill="#f12711" rx="2" opacity="0.85"/>

  <!-- X labels -->
  <text x="633" y="484" text-anchor="middle" font-size="9" fill="#888">&lt;50%</text>
  <text x="668" y="484" text-anchor="middle" font-size="9" fill="#888">50-60</text>
  <text x="703" y="484" text-anchor="middle" font-size="9" fill="#888">60-70</text>
  <text x="738" y="484" text-anchor="middle" font-size="9" fill="#888">70-80</text>
  <text x="773" y="484" text-anchor="middle" font-size="9" fill="#888">80-90</text>
  <text x="808" y="484" text-anchor="middle" font-size="9" fill="#888">90-100</text>
  <text x="745" y="505" text-anchor="middle" font-size="12" fill="#aaa">Confidence Range (%)</text>

  <!-- 70% threshold line -->
  <line x1="688" y1="335" x2="688" y2="470" stroke="#ffffff" stroke-width="1.5" stroke-dasharray="4,3" opacity="0.4"/>
  <text x="672" y="344" font-size="10" fill="#ffffff" opacity="0.5">70% threshold</text>

  <!-- ═══════════════════════════════════════════ -->
  <!-- PLOT 5: Confusion Matrix -->
  <!-- ═══════════════════════════════════════════ -->
  <text x="220" y="535" font-size="14" font-weight="bold" fill="#ffffff">Confusion Matrix (Test Set)</text>

  <!-- Matrix background -->
  <rect x="100" y="550" width="460" height="200" rx="10" fill="#12122a"/>

  <!-- Header row -->
  <text x="290" y="548" text-anchor="middle" font-size="12" fill="#aaa">Predicted</text>
  <text x="148" y="600" text-anchor="middle" font-size="11" fill="#f5af19">North Indian</text>
  <text x="290" y="600" text-anchor="middle" font-size="11" fill="#f12711">South Indian</text>
  <text x="432" y="600" text-anchor="middle" font-size="11" fill="#7c6fe0">Non Indian</text>

  <!-- Actual label (rotated via transform) -->
  <text transform="rotate(-90, 112, 680)" x="112" y="680" text-anchor="middle" font-size="12" fill="#aaa">Actual</text>
  <text x="130" y="648" text-anchor="middle" font-size="10" fill="#f5af19">N.Indian</text>
  <text x="130" y="700" text-anchor="middle" font-size="10" fill="#f12711">S.Indian</text>
  <text x="130" y="730" text-anchor="middle" font-size="10" fill="#7c6fe0">Non Indian</text>

  <!-- Row 1: North Indian -->
  <rect x="158" y="612" width="130" height="42" fill="#f5af19" opacity="0.75" rx="4"/>
  <rect x="228" y="656" width="130" height="42" fill="#f12711" opacity="0.15" rx="4"/>
  <rect x="368" y="656" width="130" height="42" fill="#7c6fe0" opacity="0.10" rx="4"/>
  <text x="223" y="639" text-anchor="middle" font-size="16" font-weight="bold" fill="#fff">185</text>
  <text x="293" y="639" text-anchor="middle" font-size="16" fill="#888">10</text>
  <text x="433" y="639" text-anchor="middle" font-size="16" fill="#888">5</text>

  <!-- Row 2: South Indian -->
  <rect x="158" y="656" width="130" height="42" fill="#f5af19" opacity="0.10" rx="4"/>
  <rect x="288" y="656" width="130" height="42" fill="#f12711" opacity="0.75" rx="4"/>
  <rect x="418" y="656" width="130" height="42" fill="#7c6fe0" opacity="0.10" rx="4"/>
  <text x="223" y="683" text-anchor="middle" font-size="16" fill="#888">8</text>
  <text x="353" y="683" text-anchor="middle" font-size="16" font-weight="bold" fill="#fff">172</text>
  <text x="483" y="683" text-anchor="middle" font-size="16" fill="#888">6</text>

  <!-- Row 3: Non Indian -->
  <rect x="158" y="700" width="130" height="42" fill="#f5af19" opacity="0.10" rx="4"/>
  <rect x="288" y="700" width="130" height="42" fill="#f12711" opacity="0.10" rx="4"/>
  <rect x="418" y="700" width="130" height="42" fill="#7c6fe0" opacity="0.75" rx="4"/>
  <text x="223" y="727" text-anchor="middle" font-size="16" fill="#888">4</text>
  <text x="353" y="727" text-anchor="middle" font-size="16" fill="#888">3</text>
  <text x="483" y="727" text-anchor="middle" font-size="16" font-weight="bold" fill="#fff">118</text>

  <!-- Grid lines -->
  <line x1="158" y1="612" x2="548" y2="612" stroke="#2a2a3e" stroke-width="1"/>
  <line x1="158" y1="656" x2="548" y2="656" stroke="#2a2a3e" stroke-width="1"/>
  <line x1="158" y1="700" x2="548" y2="700" stroke="#2a2a3e" stroke-width="1"/>
  <line x1="158" y1="742" x2="548" y2="742" stroke="#2a2a3e" stroke-width="1"/>
  <line x1="158" y1="612" x2="158" y2="742" stroke="#2a2a3e" stroke-width="1"/>
  <line x1="288" y1="612" x2="288" y2="742" stroke="#2a2a3e" stroke-width="1"/>
  <line x1="418" y1="612" x2="418" y2="742" stroke="#2a2a3e" stroke-width="1"/>
  <line x1="548" y1="612" x2="548" y2="742" stroke="#2a2a3e" stroke-width="1"/>

  <!-- ═══════════════════════════════════════════ -->
  <!-- PLOT 6: Model Accuracy Summary Bar -->
  <!-- ═══════════════════════════════════════════ -->
  <text x="650" y="535" font-size="14" font-weight="bold" fill="#ffffff">Per-Class Accuracy</text>

  <!-- Axes -->
  <line x1="610" y1="740" x2="880" y2="740" stroke="#444" stroke-width="1.5"/>
  <line x1="610" y1="555" x2="610" y2="740" stroke="#444" stroke-width="1.5"/>

  <!-- Y gridlines -->
  <line x1="610" y1="703" x2="880" y2="703" stroke="#2a2a3e" stroke-width="1"/>
  <line x1="610" y1="666" x2="880" y2="666" stroke="#2a2a3e" stroke-width="1"/>
  <line x1="610" y1="629" x2="880" y2="629" stroke="#2a2a3e" stroke-width="1"/>
  <line x1="610" y1="592" x2="880" y2="592" stroke="#2a2a3e" stroke-width="1"/>
  <line x1="610" y1="555" x2="880" y2="555" stroke="#2a2a3e" stroke-width="1"/>

  <text x="600" y="744" text-anchor="end" font-size="11" fill="#888">0%</text>
  <text x="600" y="707" text-anchor="end" font-size="11" fill="#888">25%</text>
  <text x="600" y="670" text-anchor="end" font-size="11" fill="#888">50%</text>
  <text x="600" y="633" text-anchor="end" font-size="11" fill="#888">75%</text>
  <text x="600" y="596" text-anchor="end" font-size="11" fill="#888">100%</text>

  <!-- North Indian: 92% → height = 0.92*185 = 170 -->
  <rect x="628" y="583" width="55" height="157" fill="#f5af19" rx="4" opacity="0.9"/>
  <text x="655" y="578" text-anchor="middle" font-size="12" font-weight="bold" fill="#f5af19">92%</text>
  <text x="655" y="758" text-anchor="middle" font-size="11" fill="#cccccc">North</text>
  <text x="655" y="770" text-anchor="middle" font-size="11" fill="#cccccc">Indian</text>

  <!-- South Indian: 93% -->
  <rect x="713" y="581" width="55" height="159" fill="#f12711" rx="4" opacity="0.9"/>
  <text x="740" y="576" text-anchor="middle" font-size="12" font-weight="bold" fill="#f12711">93%</text>
  <text x="740" y="758" text-anchor="middle" font-size="11" fill="#cccccc">South</text>
  <text x="740" y="770" text-anchor="middle" font-size="11" fill="#cccccc">Indian</text>

  <!-- Non Indian: 94.4% -->
  <rect x="798" y="579" width="55" height="161" fill="#7c6fe0" rx="4" opacity="0.9"/>
  <text x="825" y="574" text-anchor="middle" font-size="12" font-weight="bold" fill="#7c6fe0">94%</text>
  <text x="825" y="758" text-anchor="middle" font-size="11" fill="#cccccc">Non</text>
  <text x="825" y="770" text-anchor="middle" font-size="11" fill="#cccccc">Indian</text>

  <!-- ═══════════════════════════════════════════ -->
  <!-- SUMMARY STATS ROW -->
  <!-- ═══════════════════════════════════════════ -->
  <rect x="60" y="800" width="780" height="90" rx="14" fill="#12122a" stroke="#f5af19" stroke-width="1" opacity="0.9"/>
  <text x="450" y="825" text-anchor="middle" font-size="13" font-weight="bold" fill="#f5af19">Model Summary</text>

  <!-- Stat 1 -->
  <text x="160" y="855" text-anchor="middle" font-size="22" font-weight="bold" fill="#f5af19">93.3%</text>
  <text x="160" y="872" text-anchor="middle" font-size="11" fill="#aaa">Val Accuracy</text>

  <!-- Divider -->
  <line x1="270" y1="838" x2="270" y2="875" stroke="#333" stroke-width="1"/>

  <!-- Stat 2 -->
  <text x="360" y="855" text-anchor="middle" font-size="22" font-weight="bold" fill="#f12711">15</text>
  <text x="360" y="872" text-anchor="middle" font-size="11" fill="#aaa">Epochs</text>

  <!-- Divider -->
  <line x1="450" y1="838" x2="450" y2="875" stroke="#333" stroke-width="1"/>

  <!-- Stat 3 -->
  <text x="550" y="855" text-anchor="middle" font-size="22" font-weight="bold" fill="#7c6fe0">3</text>
  <text x="550" y="872" text-anchor="middle" font-size="11" fill="#aaa">Classes</text>

  <!-- Divider -->
  <line x1="630" y1="838" x2="630" y2="875" stroke="#333" stroke-width="1"/>

  <!-- Stat 4 -->
  <text x="730" y="855" text-anchor="middle" font-size="22" font-weight="bold" fill="#f5af19">70%</text>
  <text x="730" y="872" text-anchor="middle" font-size="11" fill="#aaa">Conf Threshold</text>

  <!-- Footer -->
  <text x="450" y="930" text-anchor="middle" font-size="11" fill="#555">Powered by DenseNet-121 · Transfer Learning from ImageNet · Built with TensorFlow &amp; Streamlit</text>

</svg>
